<svg width="375" height="812" viewBox="0 0 375 812" fill="none" xmlns="http://www.w3.org/2000/svg">
<rect width="375" height="812" fill="#E5E5E5"/>
<g clip-path="url(#clip0_0:1)">
<rect width="375" height="812" fill="white"/>
<g filter="url(#filter0_d_0:1)">
<path d="M109.797 590H102.766L89.0781 567.547V590H82.0469V555.875H89.0781L102.789 578.375V555.875H109.797V590ZM127.164 590.469C123.445 590.469 120.414 589.328 118.07 587.047C115.742 584.766 114.578 581.727 114.578 577.93V577.273C114.578 574.727 115.07 572.453 116.055 570.453C117.039 568.438 118.43 566.891 120.227 565.812C122.039 564.719 124.102 564.172 126.414 564.172C129.883 564.172 132.609 565.266 134.594 567.453C136.594 569.641 137.594 572.742 137.594 576.758V579.523H121.445C121.664 581.18 122.32 582.508 123.414 583.508C124.523 584.508 125.922 585.008 127.609 585.008C130.219 585.008 132.258 584.062 133.727 582.172L137.055 585.898C136.039 587.336 134.664 588.461 132.93 589.273C131.195 590.07 129.273 590.469 127.164 590.469ZM126.391 569.656C125.047 569.656 123.953 570.109 123.109 571.016C122.281 571.922 121.75 573.219 121.516 574.906H130.938V574.367C130.906 572.867 130.5 571.711 129.719 570.898C128.938 570.07 127.828 569.656 126.391 569.656ZM163.516 580.789L166.844 564.641H173.383L166.914 590H161.242L156.438 574.039L151.633 590H145.984L139.516 564.641H146.055L149.359 580.766L154 564.641H158.898L163.516 580.789ZM190.492 582.992C190.492 582.164 190.078 581.516 189.25 581.047C188.438 580.562 187.125 580.133 185.312 579.758C179.281 578.492 176.266 575.93 176.266 572.07C176.266 569.82 177.195 567.945 179.055 566.445C180.93 564.93 183.375 564.172 186.391 564.172C189.609 564.172 192.18 564.93 194.102 566.445C196.039 567.961 197.008 569.93 197.008 572.352H190.234C190.234 571.383 189.922 570.586 189.297 569.961C188.672 569.32 187.695 569 186.367 569C185.227 569 184.344 569.258 183.719 569.773C183.094 570.289 182.781 570.945 182.781 571.742C182.781 572.492 183.133 573.102 183.836 573.57C184.555 574.023 185.758 574.422 187.445 574.766C189.133 575.094 190.555 575.469 191.711 575.891C195.289 577.203 197.078 579.477 197.078 582.711C197.078 585.023 196.086 586.898 194.102 588.336C192.117 589.758 189.555 590.469 186.414 590.469C184.289 590.469 182.398 590.094 180.742 589.344C179.102 588.578 177.812 587.539 176.875 586.227C175.938 584.898 175.469 583.469 175.469 581.938H181.891C181.953 583.141 182.398 584.062 183.227 584.703C184.055 585.344 185.164 585.664 186.555 585.664C187.852 585.664 188.828 585.422 189.484 584.938C190.156 584.438 190.492 583.789 190.492 582.992ZM233.125 582.969H220.797L218.453 590H210.977L223.68 555.875H230.195L242.969 590H235.492L233.125 582.969ZM222.695 577.273H231.227L226.938 564.5L222.695 577.273ZM267.414 577.555C267.414 581.461 266.523 584.594 264.742 586.953C262.977 589.297 260.586 590.469 257.57 590.469C255.008 590.469 252.938 589.578 251.359 587.797V599.75H244.586V564.641H250.867L251.102 567.125C252.742 565.156 254.883 564.172 257.523 564.172C260.648 564.172 263.078 565.328 264.812 567.641C266.547 569.953 267.414 573.141 267.414 577.203V577.555ZM260.641 577.062C260.641 574.703 260.219 572.883 259.375 571.602C258.547 570.32 257.336 569.68 255.742 569.68C253.617 569.68 252.156 570.492 251.359 572.117V582.5C252.188 584.172 253.664 585.008 255.789 585.008C259.023 585.008 260.641 582.359 260.641 577.062ZM294.461 577.555C294.461 581.461 293.57 584.594 291.789 586.953C290.023 589.297 287.633 590.469 284.617 590.469C282.055 590.469 279.984 589.578 278.406 587.797V599.75H271.633V564.641H277.914L278.148 567.125C279.789 565.156 281.93 564.172 284.57 564.172C287.695 564.172 290.125 565.328 291.859 567.641C293.594 569.953 294.461 573.141 294.461 577.203V577.555ZM287.688 577.062C287.688 574.703 287.266 572.883 286.422 571.602C285.594 570.32 284.383 569.68 282.789 569.68C280.664 569.68 279.203 570.492 278.406 572.117V582.5C279.234 584.172 280.711 585.008 282.836 585.008C286.07 585.008 287.688 582.359 287.688 577.062Z" fill="#4A5AAE"/>
</g>
<path fill-rule="evenodd" clip-rule="evenodd" d="M218.854 -124.597C310.185 -118.593 365.018 -32.0597 421.294 40.1233C476.382 110.782 547.073 184.585 528.183 272.166C509.144 360.434 417.448 405.996 334.621 441.958C257.012 475.654 174.035 488.339 94.0885 460.642C-0.975235 427.709 -104.925 378.629 -129.667 281.112C-154.801 182.045 -86.5605 88.6423 -19.9615 11.1151C42.8097 -61.956 122.731 -130.916 218.854 -124.597Z" fill="url(#paint0_linear_0:1)"/>
<g filter="url(#filter1_i_0:1)">
<path d="M234.461 256.623C212.109 245.495 185.492 242.392 160.458 247.994C135.425 253.597 114.023 267.448 100.954 286.504C94.4783 295.946 90.2462 306.384 88.4993 317.221C86.7524 328.058 87.5249 339.083 90.7727 349.666C94.0204 360.248 99.6799 370.181 107.428 378.898C115.176 387.615 124.861 394.944 135.929 400.468C146.998 405.992 159.234 409.602 171.938 411.092C184.642 412.582 197.566 411.923 209.972 409.152C222.377 406.382 234.022 401.554 244.24 394.944C254.458 388.334 263.05 380.072 269.526 370.63C282.603 351.561 286.265 328.842 279.706 307.47C273.146 286.099 256.904 267.825 234.55 256.669C234.521 256.654 234.491 256.639 234.461 256.623ZM233.161 266.941C241.157 272.662 245.364 283.139 244.946 296.829C244.812 301.244 244.167 305.949 243.049 310.842L213.251 295.972L233.161 266.941ZM224.54 263.019L204.82 291.764L176.585 277.675C181.035 274.445 185.53 271.658 189.972 269.397C202.948 262.79 215.017 260.631 224.534 263.019H224.54ZM203.782 255.274C197.546 256.702 191.199 259.07 184.969 262.243C179.13 265.218 173.324 268.911 167.677 273.226L144.994 261.907C163.1 253.955 183.881 251.611 203.788 255.274H203.782ZM252.906 280.683C265.279 293.424 272.371 309.295 273.077 325.829L251.946 315.283C253.595 308.972 254.532 302.845 254.708 297.045C254.887 291.257 254.29 285.74 252.906 280.683ZM135.424 266.781L160.386 279.238C153.197 285.614 146.389 293.018 140.271 301.301L111.969 287.176C118.174 279.151 126.139 272.226 135.424 266.779V266.781ZM169.094 283.584L199.893 298.954L183.49 322.871L148.71 305.511C154.921 297.157 161.862 289.775 169.094 283.584ZM208.321 303.162L240.677 319.31C237.898 327.721 233.758 336.501 228.262 345.212L191.919 327.076L208.321 303.162ZM249.376 323.651L272.79 335.335C271.774 344.908 268.599 354.223 263.441 362.769L236.679 349.415C242.145 340.809 246.38 332.119 249.376 323.651ZM107.039 294.366L135.293 308.467C129.736 316.997 125.383 325.627 122.256 334.059L97.6896 321.802C98.7053 312.228 101.88 302.912 107.039 294.366ZM143.722 312.675L178.561 330.061L162.158 353.975L130.938 338.396C133.87 330.013 138.125 321.298 143.722 312.675ZM186.989 334.266L223.385 352.43C217.316 360.82 210.495 368.253 203.366 374.541L170.587 358.18L186.989 334.266ZM231.788 356.624L258.508 369.959C252.303 377.983 244.34 384.909 235.055 390.356L212.038 378.867C219.119 372.408 225.795 364.935 231.788 356.624ZM97.4022 331.308L119.546 342.358C117.61 349.277 116.533 355.988 116.344 362.31C116.19 367.272 116.614 372.034 117.605 376.483C105.213 363.738 98.1104 347.855 97.4022 331.308ZM128.41 346.783L157.228 361.165L136.719 391.07C136.217 390.786 135.734 390.487 135.24 390.196C128.979 384.18 125.737 374.607 126.106 362.526C126.256 357.595 127.026 352.297 128.41 346.783ZM165.657 365.37L196.034 380.531C191.076 384.263 186.043 387.431 181.077 389.958C169.158 396.027 158.004 398.343 148.892 396.834C147.636 396.344 146.386 395.82 145.147 395.278L165.657 365.37ZM204.893 384.953L225.483 395.228C209.112 402.414 190.512 405.041 172.3 402.736C177.095 401.243 181.71 399.36 186.082 397.112C192.446 393.873 198.777 389.782 204.893 384.951V384.953Z" fill="#5C6BBA"/>
</g>
<path d="M245.018 238.01C243.212 238.073 241.479 238.634 240.078 239.608C238.676 240.581 237.682 241.916 237.244 243.412C236.805 244.908 236.946 246.484 237.646 247.906C238.345 249.328 239.565 250.518 241.123 251.299C275.502 269.078 295.205 301.015 292.607 334.48C290.01 367.943 265.514 397.541 228.649 411.497C191.785 425.456 148.641 421.393 116.483 400.97C115.601 400.41 114.599 400.004 113.534 399.774C112.468 399.545 111.36 399.496 110.272 399.632C109.184 399.768 108.139 400.085 107.195 400.565C106.251 401.046 105.427 401.68 104.771 402.432C104.114 403.184 103.638 404.039 103.368 404.948C103.099 405.857 103.042 406.802 103.201 407.73C103.36 408.658 103.732 409.55 104.295 410.355C104.859 411.16 105.602 411.863 106.484 412.423C113.724 417.021 121.521 420.943 129.741 424.123C110.881 428.598 98.8 435.818 98.8 445.4C98.8 462.298 133.343 476 182.5 476C231.657 476 266.2 462.298 266.2 445.4C266.2 435.952 254.468 428.788 236.054 424.304C278.097 408.158 306.309 374.055 309.308 335.423C312.322 296.6 289.368 259.549 249.798 239.088C248.368 238.326 246.702 237.95 245.018 238.01ZM142.438 428.352C152.257 431.118 162.428 432.872 172.735 433.579V438.505C172.735 440.226 173.764 441.875 175.595 443.091C177.426 444.308 179.91 444.991 182.5 444.991C185.09 444.991 187.574 444.308 189.405 443.091C191.236 441.875 192.265 440.226 192.265 438.505V433.672C202.834 433.032 213.271 431.29 223.343 428.483C239.179 431.451 249.46 436.078 249.46 441.323C249.46 450.336 219.481 457.643 182.5 457.643C145.519 457.643 115.54 450.336 115.54 441.323C115.54 436.006 126.103 431.318 142.436 428.352H142.438Z" fill="black"/>
<g clip-path="url(#clip1_0:1)">
<path d="M183 360.1C183 360.1 202.7 334.8 217 327C210.6 314.5 178.8 302 178.8 302L158.7 328.2L178.3 359.9C179.4 361.3 181.5 361.4 183 360.1Z" fill="#040404"/>
<path d="M179 354.9C179 354.9 217.3 328.2 212.5 312.8C201.8 313.8 181.3 299.2 179.8 297C173.8 305.8 161.2 312.5 155.5 320.1C153.2 323.2 152 325.4 154.3 328.9L178.4 359.8C177.2 358.4 177.6 356.2 179 354.9Z" fill="#D0D0D0"/>
<path d="M200.3 329.4L171.9 307.2L172.7 306.5L201.3 328.5L200.3 329.4Z" fill="#040404"/>
<path d="M170.9 328.2L160.7 317.5C165.6 311.9 169.6 309.3 169.6 309.3L181.2 319L170.9 328.2Z" fill="#040404"/>
<path d="M177.7 349.6L155.8 322.8C156.4 320.4 158.4 319.3 158.4 319.3L181.7 346L177.7 349.6Z" fill="#040404"/>
<path d="M183.8 321.2L180.3 324.3L193 335.9L197 332.3L183.8 321.2Z" fill="#040404"/>
<path d="M176.8 327.5L173.3 330.6L184.9 343.1L189 339.5L176.8 327.5Z" fill="#040404"/>
<path d="M181.3 301.4L182.4 302.1L180.7 306.8L184.5 303.4L185.6 304.1L180.1 309L179 308.2L180.7 303.4L177 306.7L176.1 306L181.3 301.4Z" fill="#040404"/>
<path d="M190.1 308.5L186.9 306.5L185.7 307.6L188.6 309.5L187.6 310.4L184.8 308.5L183.4 309.8L186.6 312.1L185.6 313L181.4 309.9L186.9 305L191.3 307.8L190.1 308.5Z" fill="#040404"/>
<path d="M193.2 308.8L190.7 312.4L189.9 313.4L191 312.7L195.2 310.1L196.7 311.1L194 314.8L193.2 315.8L194.4 315.1L199 312.5L200.6 313.5L192.3 317.8L191 316.8L193.8 313L194.7 311.8L193.3 312.7L189 315.3L187.8 314.4L191.9 307.9L193.2 308.8Z" fill="#040404"/>
<path d="M198.1 318.8C197.9 319.1 197.7 319.4 197.7 319.6C197.7 320 198 320.5 198.6 320.9C199 321.2 199.3 321.4 199.7 321.5C200.3 321.7 200.8 321.6 201.2 321.3C201.4 321.1 201.5 320.9 201.4 320.6C201.3 320.3 201 320 200.6 319.6L199.9 318.9C199.2 318.2 198.9 317.7 198.7 317.3C198.5 316.7 198.7 316.1 199.3 315.5C199.9 315 200.6 314.7 201.5 314.7C202.4 314.7 203.3 315 204.4 315.6C205.3 316.1 205.8 316.8 206.1 317.5C206.4 318.2 206.1 318.9 205.5 319.6L203.8 318.5C204.2 318.1 204.2 317.7 204 317.3C203.8 317 203.6 316.8 203.2 316.5C202.8 316.2 202.3 316.1 201.9 316C201.5 316 201.2 316.1 200.9 316.3C200.7 316.5 200.6 316.7 200.8 317C200.9 317.2 201.1 317.5 201.6 317.9L202.7 319.1C203.2 319.6 203.5 320.1 203.6 320.5C203.8 321.1 203.6 321.7 203 322.2C202.4 322.8 201.6 323 200.6 323C199.6 323 198.7 322.6 197.7 321.8C196.7 321.1 196.1 320.3 196 319.6C195.8 318.9 196.1 318.2 196.8 317.6L198.1 318.8Z" fill="#040404"/>
</g>
</g>
<defs>
<filter id="filter0_d_0:1" x="78.0469" y="555.875" width="220.414" height="51.875" filterUnits="userSpaceOnUse" color-interpolation-filters="sRGB">
<feFlood flood-opacity="0" result="BackgroundImageFix"/>
<feColorMatrix in="SourceAlpha" type="matrix" values="0 0 0 0 0 0 0 0 0 0 0 0 0 0 0 0 0 0 127 0" result="hardAlpha"/>
<feOffset dy="4"/>
<feGaussianBlur stdDeviation="2"/>
<feComposite in2="hardAlpha" operator="out"/>
<feColorMatrix type="matrix" values="0 0 0 0 0.356863 0 0 0 0 0.415686 0 0 0 0 0.72549 0 0 0 1 0"/>
<feBlend mode="normal" in2="BackgroundImageFix" result="effect1_dropShadow_0:1"/>
<feBlend mode="normal" in="SourceGraphic" in2="effect1_dropShadow_0:1" result="shape"/>
</filter>
<filter id="filter1_i_0:1" x="87.589" y="245.267" width="195.301" height="170.601" filterUnits="userSpaceOnUse" color-interpolation-filters="sRGB">
<feFlood flood-opacity="0" result="BackgroundImageFix"/>
<feBlend mode="normal" in="SourceGraphic" in2="BackgroundImageFix" result="shape"/>
<feColorMatrix in="SourceAlpha" type="matrix" values="0 0 0 0 0 0 0 0 0 0 0 0 0 0 0 0 0 0 127 0" result="hardAlpha"/>
<feOffset dy="4"/>
<feGaussianBlur stdDeviation="2.5"/>
<feComposite in2="hardAlpha" operator="arithmetic" k2="-1" k3="1"/>
<feColorMatrix type="matrix" values="0 0 0 0 0.0627451 0 0 0 0 0.137255 0 0 0 0 0.529412 0 0 0 1 0"/>
<feBlend mode="normal" in2="shape" result="effect1_innerShadow_0:1"/>
</filter>
<linearGradient id="paint0_linear_0:1" x1="198.153" y1="-125" x2="198.153" y2="475.787" gradientUnits="userSpaceOnUse">
<stop stop-color="#0028F0"/>
<stop offset="1" stop-color="#102387" stop-opacity="0"/>
</linearGradient>
<clipPath id="clip0_0:1">
<rect width="375" height="812" fill="white"/>
</clipPath>
<clipPath id="clip1_0:1">
<rect width="64" height="64" fill="white" transform="translate(153 297)"/>
</clipPath>
</defs>
</svg>
